<svg xmlns="http://www.w3.org/2000/svg"><symbol id="user" viewBox="0 0 490.667 490.667"><title>user</title><g> <g> <path d="M245.333,85.333c-41.173,0-74.667,33.493-74.667,74.667s33.493,74.667,74.667,74.667S320,201.173,320,160 C320,118.827,286.507,85.333,245.333,85.333z M245.333,213.333C215.936,213.333,192,189.397,192,160 c0-29.397,23.936-53.333,53.333-53.333s53.333,23.936,53.333,53.333S274.731,213.333,245.333,213.333z"/> </g> </g><g> <g> <path d="M394.667,170.667c-29.397,0-53.333,23.936-53.333,53.333s23.936,53.333,53.333,53.333S448,253.397,448,224 S424.064,170.667,394.667,170.667z M394.667,256c-17.643,0-32-14.357-32-32c0-17.643,14.357-32,32-32s32,14.357,32,32 C426.667,241.643,412.309,256,394.667,256z"/> </g> </g><g> <g> <path d="M97.515,170.667c-29.419,0-53.333,23.936-53.333,53.333s23.936,53.333,53.333,53.333s53.333-23.936,53.333-53.333 S126.933,170.667,97.515,170.667z M97.515,256c-17.643,0-32-14.357-32-32c0-17.643,14.357-32,32-32c17.643,0,32,14.357,32,32 C129.515,241.643,115.157,256,97.515,256z"/> </g> </g><g> <g> <path d="M245.333,256c-76.459,0-138.667,62.208-138.667,138.667c0,5.888,4.779,10.667,10.667,10.667S128,400.555,128,394.667 c0-64.704,52.629-117.333,117.333-117.333s117.333,52.629,117.333,117.333c0,5.888,4.779,10.667,10.667,10.667 c5.888,0,10.667-4.779,10.667-10.667C384,318.208,321.792,256,245.333,256z"/> </g> </g><g> <g> <path d="M394.667,298.667c-17.557,0-34.752,4.8-49.728,13.867c-5.013,3.072-6.635,9.621-3.584,14.656 c3.093,5.035,9.621,6.635,14.656,3.584C367.637,323.712,380.992,320,394.667,320c41.173,0,74.667,33.493,74.667,74.667 c0,5.888,4.779,10.667,10.667,10.667c5.888,0,10.667-4.779,10.667-10.667C490.667,341.739,447.595,298.667,394.667,298.667z"/> </g> </g><g> <g> <path d="M145.707,312.512c-14.955-9.045-32.149-13.845-49.707-13.845c-52.928,0-96,43.072-96,96 c0,5.888,4.779,10.667,10.667,10.667s10.667-4.779,10.667-10.667C21.333,353.493,54.827,320,96,320 c13.675,0,27.029,3.712,38.635,10.752c5.013,3.051,11.584,1.451,14.656-3.584C152.363,322.133,150.741,315.584,145.707,312.512z"/> </g> </g></symbol><symbol id="location" viewBox="0 0 128 128"><title>location</title><path d="m78.777 37.021a14.777 14.777 0 1 0 -14.777 14.779 14.795 14.795 0 0 0 14.777-14.779zm-26.054 0a11.277 11.277 0 1 1 11.277 11.279 11.29 11.29 0 0 1 -11.277-11.279z"/><path d="m123.328 121.069-14.266-37.4a1.751 1.751 0 0 0 -1.635-1.126h-27c.165-.269.329-.53.494-.8 10.389-17.2 15.617-32.246 15.542-44.714a32.464 32.464 0 0 0 -64.928-.011c-.075 12.479 5.153 27.527 15.542 44.725.165.273.329.534.494.8h-27a1.751 1.751 0 0 0 -1.635 1.126l-14.264 37.4a1.748 1.748 0 0 0 1.635 2.374h115.386a1.748 1.748 0 0 0 1.635-2.374zm-88.292-84.048a28.964 28.964 0 1 1 57.928.01c.15 24.858-23.09 55.517-28.964 62.869-5.874-7.349-29.115-38-28.964-62.879zm27.631 66.779a1.75 1.75 0 0 0 2.666 0 185.716 185.716 0 0 0 12.9-17.759h27.987l2.24 5.875-54.691 19.451-19.494-25.329h15.49a185.716 185.716 0 0 0 12.902 17.762zm-8.959 11.3h.01l32.627-11.6 12.655 16.443h-58.9zm-31.93-29.062h8.08l20.442 26.562-20.643 7.342h-20.81zm81.643 33.905-13.609-17.682 19.9-7.077 9.443 24.759z"/></symbol><symbol id="calendar" viewBox="0 0 64 64"><title>calendar</title><path d="m56 40.10529v-28.10529c0-2.75684-2.24316-5-5-5h-2v-2c0-1.6543-1.3457-3-3-3s-3 1.3457-3 3v2h-5v-2c0-1.6543-1.3457-3-3-3s-3 1.3457-3 3v2h-6v-2c0-1.6543-1.3457-3-3-3s-3 1.3457-3 3v2h-5v-2c0-1.6543-1.3457-3-3-3s-3 1.3457-3 3v2h-2c-2.75684 0-5 2.24316-5 5v40c0 2.75684 2.24316 5 5 5h33.62347c2.07868 3.58081 5.94617 6 10.37653 6 6.61719 0 12-5.38281 12-12 0-4.83142-2.87561-8.99408-7-10.89471zm-11-35.10529c0-.55176.44824-1 1-1s1 .44824 1 1v6c0 .55176-.44824 1-1 1s-1-.44824-1-1zm-11 0c0-.55176.44824-1 1-1s1 .44824 1 1v6c0 .55176-.44824 1-1 1s-1-.44824-1-1zm-12 0c0-.55176.44824-1 1-1s1 .44824 1 1v6c0 .55176-.44824 1-1 1s-1-.44824-1-1zm-11 0c0-.55176.44824-1 1-1s1 .44824 1 1v6c0 .55176-.44824 1-1 1s-1-.44824-1-1zm-4 4h2v2c0 1.6543 1.3457 3 3 3s3-1.3457 3-3v-2h5v2c0 1.6543 1.3457 3 3 3s3-1.3457 3-3v-2h6v2c0 1.6543 1.3457 3 3 3s3-1.3457 3-3v-2h5v2c0 1.6543 1.3457 3 3 3s3-1.3457 3-3v-2h2c1.6543 0 3 1.3457 3 3v5h-50v-5c0-1.6543 1.3457-3 3-3zm0 46c-1.6543 0-3-1.3457-3-3v-33h50v20.39484c-.96082-.24866-1.96246-.39484-3-.39484-.6828 0-1.34808.07056-2 .1806v-5.1806c0-.55273-.44727-1-1-1h-6c-.55273 0-1 .44727-1 1v6c0 .55273.44727 1 1 1h2.38086c-3.23914 2.15106-5.38086 5.82843-5.38086 10 0 1.40411.25494 2.74664.70001 4zm40-16h-4v-4h4zm4 22c-5.51367 0-10-4.48633-10-10s4.48633-10 10-10 10 4.48633 10 10-4.48633 10-10 10z"/><path d="m52 49.2774v-6.2774h-2v6.2774c-.59528.34644-1 .98413-1 1.7226 0 .10126.01526.19836.02979.29553l-3.65479 2.92322 1.25 1.5625 3.65161-2.92133c.22492.08759.46753.14008.72339.14008 1.10455 0 2-.89545 2-2 0-.73846-.40472-1.37616-1-1.7226z"/><path d="m15 22h-6c-.55273 0-1 .44727-1 1v6c0 .55273.44727 1 1 1h6c.55273 0 1-.44727 1-1v-6c0-.55273-.44727-1-1-1zm-1 6h-4v-4h4z"/><path d="m26 22h-6c-.55273 0-1 .44727-1 1v6c0 .55273.44727 1 1 1h6c.55273 0 1-.44727 1-1v-6c0-.55273-.44727-1-1-1zm-1 6h-4v-4h4z"/><path d="m37 22h-6c-.55273 0-1 .44727-1 1v6c0 .55273.44727 1 1 1h6c.55273 0 1-.44727 1-1v-6c0-.55273-.44727-1-1-1zm-1 6h-4v-4h4z"/><path d="m42 30h6c.55273 0 1-.44727 1-1v-6c0-.55273-.44727-1-1-1h-6c-.55273 0-1 .44727-1 1v6c0 .55273.44727 1 1 1zm1-6h4v4h-4z"/><path d="m15 33h-6c-.55273 0-1 .44727-1 1v6c0 .55273.44727 1 1 1h6c.55273 0 1-.44727 1-1v-6c0-.55273-.44727-1-1-1zm-1 6h-4v-4h4z"/><path d="m26 33h-6c-.55273 0-1 .44727-1 1v6c0 .55273.44727 1 1 1h6c.55273 0 1-.44727 1-1v-6c0-.55273-.44727-1-1-1zm-1 6h-4v-4h4z"/><path d="m37 33h-6c-.55273 0-1 .44727-1 1v6c0 .55273.44727 1 1 1h6c.55273 0 1-.44727 1-1v-6c0-.55273-.44727-1-1-1zm-1 6h-4v-4h4z"/><path d="m15 44h-6c-.55273 0-1 .44727-1 1v6c0 .55273.44727 1 1 1h6c.55273 0 1-.44727 1-1v-6c0-.55273-.44727-1-1-1zm-1 6h-4v-4h4z"/><path d="m26 44h-6c-.55273 0-1 .44727-1 1v6c0 .55273.44727 1 1 1h6c.55273 0 1-.44727 1-1v-6c0-.55273-.44727-1-1-1zm-1 6h-4v-4h4z"/><path d="m37 44h-6c-.55273 0-1 .44727-1 1v6c0 .55273.44727 1 1 1h6c.55273 0 1-.44727 1-1v-6c0-.55273-.44727-1-1-1zm-1 6h-4v-4h4z"/></symbol><symbol id="curve-arrow" viewBox="0 0 512 511"><title>curve-arrow</title><path d="m143.871094 512.484375c-10.398438 0-20.597656-4.0625-28.28125-11.734375l-97.960938-97.753906c-11.367187-11.34375-17.628906-26.433594-17.628906-42.492188s6.261719-31.152344 17.628906-42.496094l97.960938-97.753906c11.511718-11.492187 28.664062-14.886718 43.695312-8.652344 15.011719 6.226563 24.710938 20.742188 24.710938 36.976563v91.921875c158.804687 0 288.003906-129.199219 288.003906-288.003906v-31.996094c0-11.046875 8.953125-20 20-20s20 8.953125 20 20v31.996094c0 87.613281-34.117188 169.984375-96.070312 231.9375-61.953126 61.949218-144.320313 96.070312-231.933594 96.070312-22.058594 0-40.003906-17.945312-40.003906-40v-91.925781c0-.003906 0-.007813 0-.011719-.03125-.015625-.070313-.03125-.105469-.042968-.011719.015624-.027344.027343-.042969.042968l-97.960938 97.757813c-3.792968 3.785156-5.882812 8.820312-5.882812 14.179687s2.089844 10.394532 5.882812 14.179688l97.960938 97.753906.042969.042969c.035156-.011719.074219-.023438.105469-.039063 0-.003906 0-.007812 0-.015625v-21.921875c0-11.046875 8.957031-20 20.003906-20 11.042968 0 20 8.953125 20 20v21.921875c0 16.234375-9.699219 30.75-24.710938 36.976563-4.996094 2.074218-10.230468 3.082031-15.414062 3.082031zm0 0"/></symbol></svg>